<svg width="186" height="70" viewBox="0 0 186 70" fill="none" xmlns="http://www.w3.org/2000/svg">
<path d="M110.932 0.175055C111.438 0.179642 111.944 0.18096 112.451 0.181796C112.774 0.183111 113.097 0.184602 113.42 0.18629C113.646 0.187206 113.646 0.187206 113.876 0.188142C114.084 0.190214 114.084 0.190214 114.295 0.192328C114.417 0.19331 114.538 0.194292 114.663 0.195304C114.958 0.2155 114.958 0.2155 115.25 0.359306C115.596 0.392425 115.943 0.418439 116.29 0.440197C116.477 0.452246 116.664 0.464296 116.857 0.47671C117.073 0.489779 117.073 0.489779 117.293 0.503112C117.293 0.598024 117.293 0.692936 117.293 0.790724C117.427 0.785719 117.427 0.785719 117.562 0.780613C120.039 0.730383 122.342 1.22 124.62 2.15126C125.145 2.36442 125.678 2.54992 126.214 2.7321C127.665 3.2363 129.026 3.87634 130.351 4.64484C130.787 4.86858 130.787 4.86858 131.596 4.9611C131.596 4.01198 131.596 3.06286 131.596 2.08498C134.632 2.07493 137.669 2.06726 140.705 2.06263C142.115 2.06041 143.525 2.0574 144.936 2.05243C146.167 2.04809 147.398 2.04534 148.629 2.04439C149.279 2.04383 149.929 2.04255 150.579 2.03936C153.481 2.02567 156.304 2.08551 159.18 2.5164C159.18 2.61131 159.18 2.70622 159.18 2.80401C159.393 2.8307 159.393 2.8307 159.609 2.85794C160.253 2.94955 160.883 3.08604 161.516 3.23543C161.636 3.26156 161.756 3.2877 161.879 3.31463C163.479 3.69574 164.921 4.4724 166.38 5.20321C166.69 5.35369 167.001 5.49844 167.315 5.64024C167.411 5.68399 167.508 5.72774 167.608 5.77282C167.797 5.85829 167.987 5.94315 168.178 6.02728C168.771 6.2946 169.301 6.60616 169.835 6.97438C169.949 7.0515 170.063 7.12861 170.181 7.20807C170.299 7.30594 170.299 7.30594 170.418 7.4058C170.418 7.50071 170.418 7.59562 170.418 7.69341C170.523 7.70546 170.628 7.71751 170.736 7.72992C171.238 7.8606 171.508 8.07632 171.905 8.40345C172.031 8.5056 172.156 8.60774 172.285 8.71297C172.608 8.98767 172.608 8.98767 172.899 9.27528C173.008 9.3079 173.116 9.34053 173.228 9.37414C173.716 9.60375 173.929 9.88625 174.264 10.2948C174.507 10.5718 174.76 10.8006 175.043 11.0369C175.562 11.4732 176.054 11.9306 176.539 12.4031C176.676 12.5358 176.813 12.6685 176.953 12.8053C177.278 13.158 177.278 13.158 177.424 13.5895C177.677 13.8255 177.677 13.8255 177.98 14.0568C178.552 14.5339 178.832 14.9505 179.175 15.6027C179.3 15.7815 179.428 15.9582 179.558 16.133C179.811 16.4724 180.006 16.8078 180.197 17.1846C180.293 17.2321 180.389 17.2795 180.489 17.3284C180.489 17.4708 180.489 17.6131 180.489 17.7598C180.585 17.7598 180.681 17.7598 180.781 17.7598C180.834 17.8573 180.887 17.9548 180.941 18.0553C181.322 18.7496 181.71 19.4343 182.131 20.1057C182.441 20.6111 182.655 21.0729 182.824 21.6426C182.907 21.85 182.993 22.0566 183.079 22.2628C183.359 22.9467 183.619 23.6364 183.873 24.33C183.911 24.4324 183.949 24.5349 183.989 24.6405C184.218 25.2732 184.356 25.8639 184.429 26.532C184.526 26.532 184.622 26.532 184.721 26.532C184.738 26.6263 184.755 26.7207 184.772 26.8179C184.849 27.2439 184.927 27.6699 185.004 28.0959C185.031 28.2444 185.057 28.3929 185.085 28.5458C185.11 28.6877 185.136 28.8295 185.163 28.9756C185.187 29.1066 185.21 29.2376 185.235 29.3727C185.291 29.6989 185.291 29.6989 185.451 29.9833C185.679 31.5855 185.629 33.2328 185.632 34.8464C185.633 35.3087 185.638 35.7708 185.642 36.233C185.656 38.8575 185.367 41.2814 184.575 43.7887C184.528 43.977 184.482 44.1657 184.438 44.3549C184.297 44.9269 184.113 45.4853 183.928 46.0447C183.883 46.1833 183.883 46.1833 183.837 46.3247C183.653 46.869 183.426 47.3314 183.116 47.8153C183.016 48.1022 182.919 48.39 182.824 48.6781C182.554 49.3119 182.264 49.9345 181.948 50.5476C181.852 50.5476 181.756 50.5476 181.656 50.5476C181.645 50.6458 181.634 50.7441 181.623 50.8453C181.478 51.3861 181.195 51.7983 180.881 52.2553C180.535 52.7669 180.193 53.2763 179.886 53.8119C179.581 54.3414 179.262 54.8125 178.883 55.2932C178.787 55.2932 178.691 55.2932 178.591 55.2932C178.579 55.3733 178.567 55.4534 178.555 55.5359C178.317 56.2588 177.688 56.8018 177.132 57.3065C177.036 57.3065 176.939 57.3065 176.84 57.3065C176.804 57.4221 176.768 57.5378 176.731 57.657C176.67 57.7786 176.61 57.9002 176.548 58.0255C176.355 58.079 176.16 58.1271 175.964 58.1693C175.865 58.3603 175.768 58.5521 175.672 58.7445C175.455 58.9964 175.455 58.9964 175.201 59.2473C175.108 59.3395 175.015 59.4317 174.918 59.5268C174.821 59.6216 174.724 59.7164 174.623 59.8141C174.529 59.9084 174.434 60.0026 174.337 60.0997C173.64 60.784 172.927 61.348 172.078 61.8453C171.714 62.0521 171.714 62.0521 171.349 62.3577C171.002 62.6273 171.002 62.6273 170.564 62.7711C170.468 62.9135 170.372 63.0558 170.272 63.2025C170.128 63.25 169.983 63.2974 169.835 63.3463C169.786 63.4412 169.738 63.5361 169.689 63.6339C169.391 63.8041 169.391 63.8041 169.014 63.9845C168.881 64.048 168.749 64.1116 168.612 64.1771C168.312 64.3151 168.007 64.4437 167.7 64.5687C167.307 64.7407 166.989 64.9147 166.633 65.1439C165.86 65.6337 165.052 65.9386 164.143 66.0786C164.143 66.1735 164.143 66.2685 164.143 66.3662C164.06 66.3837 163.977 66.4011 163.891 66.4191C163.345 66.5359 162.809 66.6596 162.273 66.8156C161.807 66.9415 161.807 66.9415 161.224 66.9415C161.224 67.0364 161.224 67.1313 161.224 67.2291C157.855 68.3624 154.34 68.2972 150.827 68.2795C150.189 68.2767 149.552 68.2765 148.915 68.276C147.714 68.2747 146.513 68.2712 145.311 68.2668C143.942 68.2619 142.572 68.2596 141.202 68.2574C138.389 68.253 135.576 68.2454 132.764 68.2357C132.764 68.0934 132.764 67.951 132.764 67.8043C133.091 67.5613 133.41 67.3489 133.758 67.1392C133.852 67.0806 133.946 67.022 134.042 66.9617C134.439 66.7173 134.8 66.5124 135.245 66.3662C135.344 66.2016 135.344 66.2016 135.446 66.0337C135.713 65.5979 135.99 65.3604 136.413 65.072C136.509 65.072 136.605 65.072 136.704 65.072C136.704 64.9771 136.704 64.8822 136.704 64.7844C137.357 64.2092 137.357 64.2092 137.726 64.2092C137.764 64.1233 137.801 64.0375 137.84 63.9491C138.033 63.6079 138.22 63.4349 138.529 63.1935C138.884 62.9137 139.072 62.7231 139.331 62.3397C139.428 62.3397 139.524 62.3397 139.623 62.3397C139.673 62.2196 139.673 62.2196 139.724 62.097C139.968 61.6723 140.294 61.391 140.645 61.0454C140.947 60.6692 141.233 60.2818 141.521 59.895C141.857 59.4595 142.079 59.1929 142.542 58.8883C142.719 58.4491 142.719 58.4491 142.834 58.0255C142.931 58.0255 143.027 58.0255 143.126 58.0255C143.159 57.9276 143.192 57.8297 143.226 57.7289C143.388 57.3732 143.54 57.1281 143.774 56.8211C144.14 56.3357 144.364 55.8561 144.586 55.2932C144.682 55.2932 144.778 55.2932 144.877 55.2932C144.899 55.2042 144.92 55.1152 144.941 55.0236C145.023 54.718 145.023 54.718 145.169 54.4304C145.266 54.4304 145.362 54.4304 145.461 54.4304C145.509 54.1456 145.558 53.8609 145.607 53.5675C145.704 53.5675 145.8 53.5675 145.899 53.5675C145.899 53.4726 145.899 53.3777 145.899 53.2799C146.164 53.3001 146.428 53.3212 146.693 53.3428C146.84 53.3545 146.987 53.3662 147.139 53.3782C147.505 53.4237 147.505 53.4237 147.65 53.5675C148 53.5839 148.345 53.5911 148.695 53.5917C148.802 53.5922 148.91 53.5926 149.02 53.5931C149.249 53.5939 149.478 53.5942 149.708 53.5942C150.049 53.5945 150.39 53.5971 150.732 53.5998C153.289 53.6093 155.893 53.4107 158.269 52.4109C158.556 52.2904 158.849 52.186 159.144 52.0845C160.359 51.6389 161.53 51.0623 162.537 50.26C162.633 50.26 162.73 50.26 162.829 50.26C162.829 50.1651 162.829 50.0702 162.829 49.9724C162.925 49.9724 163.022 49.9724 163.121 49.9724C163.121 49.8775 163.121 49.7825 163.121 49.6848C163.382 49.5443 163.644 49.4039 163.905 49.2635C164.167 49.1219 164.167 49.1219 164.289 48.8219C164.385 48.8219 164.481 48.8219 164.58 48.8219C164.589 48.7389 164.598 48.6558 164.608 48.5703C164.774 48.1159 165.07 47.9672 165.456 47.6715C165.974 47.1369 166.394 46.5856 166.77 45.9458C167.295 45.2555 167.295 45.2555 167.645 45.083C168.219 44.239 168.6 43.2977 168.959 42.3507C169.055 42.3507 169.151 42.3507 169.251 42.3507C169.266 42.232 169.281 42.1134 169.296 41.9911C169.393 41.5063 169.541 41.0954 169.723 40.6385C169.837 40.331 169.921 40.0262 169.999 39.7082C170.126 39.1869 170.126 39.1869 170.272 38.8993C170.367 38.3959 170.431 37.8876 170.5 37.3804C170.521 37.2416 170.541 37.1029 170.562 36.9599C170.711 35.8901 170.842 34.8189 170.573 33.7582C170.444 33.1906 170.392 32.6497 170.364 32.0685C170.313 31.3034 170.148 30.7091 169.831 30.0125C169.638 29.5839 169.524 29.1403 169.397 28.6891C169.322 28.4938 169.246 28.299 169.169 28.1049C168.984 27.6325 168.877 27.1801 168.813 26.6758C168.717 26.6758 168.62 26.6758 168.521 26.6758C168.444 26.5295 168.444 26.5295 168.365 26.3803C167.43 24.6425 166.301 23.155 164.863 21.7864C164.58 21.4988 164.58 21.4988 164.58 21.2112C164.496 21.1734 164.412 21.1355 164.326 21.0966C163.978 20.914 163.706 20.7036 163.404 20.4562C162.794 19.9807 162.165 19.6179 161.477 19.2647C161.102 19.0668 160.751 18.8499 160.394 18.6227C159.425 18.0383 158.35 17.6962 157.283 17.3284C157.283 17.2335 157.283 17.1386 157.283 17.0408C157.136 17.0467 156.988 17.0527 156.836 17.0588C156.261 17.0408 156.261 17.0408 155.796 16.906C154.277 16.4889 152.614 16.5711 151.044 16.5285C150.827 16.5223 150.61 16.516 150.393 16.5097C149.868 16.4945 149.343 16.4799 148.818 16.4656C148.818 16.5605 148.818 16.6554 148.818 16.7532C148.605 16.7782 148.392 16.8019 148.18 16.8251C148.061 16.8384 147.943 16.8518 147.82 16.8655C147.18 16.9092 146.541 16.9026 145.899 16.897C145.9 17.1311 145.9 17.1311 145.901 17.3699C145.904 17.9469 145.906 18.5239 145.907 19.101C145.908 19.3511 145.909 19.6012 145.91 19.8513C145.912 20.21 145.913 20.5688 145.913 20.9275C145.914 21.04 145.915 21.1525 145.916 21.2684C145.916 21.537 145.908 21.8056 145.899 22.074C145.58 22.3888 144.818 22.2483 144.373 22.2524C144.228 22.2543 144.083 22.2561 143.933 22.2581C142.414 22.2763 140.895 22.2844 139.376 22.2919C138.654 22.2957 137.933 22.3027 137.212 22.3125C136.342 22.3243 135.473 22.3304 134.603 22.3326C134.271 22.3343 133.94 22.3381 133.608 22.3438C133.143 22.3515 132.679 22.352 132.214 22.3507C132.009 22.3566 132.009 22.3566 131.8 22.3626C131.225 22.3545 130.864 22.3347 130.411 21.9661C130.151 21.6771 129.921 21.3856 129.699 21.0674C129.608 20.9421 129.517 20.8169 129.423 20.6878C129.352 20.5799 129.281 20.4719 129.208 20.3607C128.666 19.5824 128.03 18.9377 127.346 18.2811C127.231 18.169 127.116 18.0568 126.998 17.9413C126.055 16.9632 126.055 16.9632 124.883 16.3218C124.835 16.2269 124.786 16.1319 124.737 16.0342C124.462 15.9042 124.462 15.9042 124.144 15.8005C124.037 15.763 123.93 15.7256 123.819 15.687C123.737 15.6592 123.654 15.6314 123.569 15.6027C123.569 15.5078 123.569 15.4129 123.569 15.3151C123.455 15.2825 123.34 15.2499 123.223 15.2163C122.643 15.0094 122.112 14.7487 121.565 14.4697C121.223 14.2941 123.223 15.2163 120.796 14.1647C120.796 14.0698 120.796 13.9749 120.796 13.8771C120.315 13.8296 119.833 13.7822 119.337 13.7333C121.253 14.3619 119.337 13.5434 119.337 13.4457C118.607 13.3978 119.124 13.4349 119.015 13.4294C118.064 13.3681 117.187 13.2292 116.269 12.9738C115.086 12.693 113.907 12.6989 112.696 12.6997C112.514 12.6998 112.332 12.6999 112.144 12.7C110.818 12.7087 109.552 12.7978 108.245 13.0142C107.88 13.0682 107.515 13.1222 107.15 13.176C106.882 13.2176 106.615 13.2594 106.347 13.3018C105.875 12.7232 105.413 12.1408 104.991 11.5256C104.935 11.4433 104.878 11.3609 104.82 11.276C104.657 11.0373 104.496 10.7975 104.335 10.5577C104.017 10.1447 103.702 9.87076 103.282 9.56289C102.845 9.07197 102.845 9.07197 102.845 8.55625C102.759 8.52084 102.673 8.48543 102.585 8.44895C102.211 8.2408 102.011 8.01234 101.741 7.68442C101.358 7.2137 101.358 7.2137 100.801 6.97438C100.602 6.76429 100.602 6.76429 100.382 6.48904C99.5823 5.55691 98.5978 4.79927 97.6287 4.04455C97.4163 3.87682 97.2108 3.70056 97.0067 3.52304C97.0067 3.42813 97.0067 3.33321 97.0067 3.23543C96.8622 3.18797 96.7177 3.14051 96.5688 3.09162C96.5688 2.99671 96.5688 2.9018 96.5688 2.80401C97.2188 2.51787 97.8671 2.27449 98.5448 2.06026C98.9436 1.92805 99.3329 1.77689 99.725 1.6266C100.366 1.39303 100.853 1.30653 101.531 1.36595C101.531 1.27104 101.531 1.17612 101.531 1.07834C101.696 1.05924 101.861 1.04015 102.032 1.02048C102.248 0.994852 102.464 0.969197 102.68 0.943518C102.789 0.931005 102.898 0.918492 103.01 0.9056C103.603 0.843463 103.603 0.843463 104.158 0.646918C106.395 0.203405 108.66 0.154242 110.932 0.175055Z" fill="#2A5F80"/>
<path d="M73.5696 0.173348C74.8514 0.1562 76.1277 0.242039 77.4059 0.32732C77.4059 0.421237 77.4059 0.515154 77.4059 0.611917C77.4867 0.607171 77.5676 0.602424 77.6509 0.597534C78.7359 0.562804 79.716 0.770901 80.7673 1.02103C81.0995 1.09787 81.4318 1.17458 81.7641 1.25115C81.9215 1.28779 82.079 1.32443 82.2412 1.36218C82.868 1.50415 83.4973 1.63018 84.1286 1.75031C84.1286 1.84422 84.1286 1.93814 84.1286 2.0349C84.2512 2.05334 84.2512 2.05334 84.3762 2.07215C85.9435 2.34234 87.3561 2.98808 88.7806 3.66738C89.4579 3.98743 90.1423 4.24798 90.8547 4.479C91.1375 4.59628 91.1375 4.59628 91.2805 4.88088C91.4668 4.99506 91.6586 5.10049 91.8527 5.20105C92.4447 5.51798 92.9972 5.8707 93.5523 6.24717C93.8153 6.41995 94.0787 6.57324 94.3558 6.72187C94.8972 7.02 95.3651 7.40085 95.8476 7.78411C96.1504 8.02618 96.1504 8.02618 96.5371 8.24269C96.9479 8.4924 97.2374 8.80754 97.5742 9.14984C97.8124 9.39016 98.0508 9.63029 98.2893 9.87023C98.4663 10.0488 98.4663 10.0488 98.6469 10.231C99.0002 10.5794 99.0002 10.5794 99.3979 10.8836C99.7197 11.142 99.7197 11.142 99.8627 11.4266C99.9712 11.4886 100.08 11.5506 100.191 11.6145C100.621 11.8799 100.872 12.155 101.186 12.5472C101.333 12.7272 101.333 12.7272 101.483 12.9108C101.727 13.2836 101.812 13.5504 101.865 13.988C101.96 13.988 102.054 13.988 102.151 13.988C102.259 14.2993 102.259 14.2993 102.294 14.6995C101.919 15.2418 101.479 15.6349 100.962 16.0424C100.824 16.1531 100.685 16.2637 100.543 16.3776C100.413 16.4813 100.283 16.5849 100.149 16.6917C99.4003 17.3087 98.6915 17.9331 98.0837 18.6928C97.7172 19.1108 97.7172 19.1108 97.3205 19.372C96.8255 19.7023 96.407 20.0669 95.9739 20.4715C95.8995 20.54 95.8251 20.6085 95.7485 20.6791C95.4564 20.9489 95.1677 21.2187 94.8939 21.507C94.7134 21.6721 94.7134 21.6721 94.4273 21.6721C94.3801 21.813 94.3329 21.9539 94.2843 22.099C94.034 22.0812 94.034 22.0812 93.7121 21.9567C93.5129 21.678 93.3227 21.3927 93.14 21.1029C93.0338 20.9973 92.9276 20.8916 92.8182 20.7828C92.7356 20.7006 92.653 20.6184 92.5678 20.5337C92.5678 20.4398 92.5678 20.3459 92.5678 20.2492C92.4528 20.2007 92.4528 20.2007 92.3354 20.1513C91.8777 19.8997 91.525 19.6036 91.1375 19.2531C91.1375 19.1591 91.1375 19.0652 91.1375 18.9685C91.0637 18.936 90.99 18.9035 90.914 18.8701C90.434 18.6137 90.0046 18.299 89.5641 17.9813C89.4759 17.9183 89.3878 17.8552 89.297 17.7903C88.9413 17.5356 88.5878 17.2801 88.241 17.0135C87.9471 16.8027 87.636 16.6861 87.3017 16.5516C86.8969 16.3643 86.5228 16.1376 86.1401 15.909C85.4813 15.5191 84.8562 15.2207 84.1286 14.9841C84.1286 14.8902 84.1286 14.7963 84.1286 14.6995C84.0272 14.6801 83.9258 14.6606 83.8213 14.6406C83.4141 14.5573 83.0121 14.4621 82.6089 14.3615C82.3835 14.3054 82.3835 14.3054 82.1535 14.2481C81.728 14.1383 81.306 14.0197 80.8835 13.8991C80.1999 13.7103 79.5428 13.6187 78.8363 13.5611C78.8363 13.4672 78.8363 13.3733 78.8363 13.2765C78.2059 13.2901 77.5756 13.3052 76.9453 13.3217C76.732 13.327 76.5187 13.332 76.3054 13.3365C74.1403 13.3831 72.0896 13.5561 70.0126 14.2192C69.7203 14.3109 69.4277 14.4017 69.1349 14.4916C68.9466 14.5515 68.9466 14.5515 68.7545 14.6126C68.3828 14.7023 68.0604 14.7154 67.6793 14.6995C67.6321 14.8404 67.5849 14.9812 67.5363 15.1264C67.3011 15.2626 67.3011 15.2626 66.991 15.3843C65.9794 15.8039 64.9456 16.2478 64.0408 16.8696C63.6743 17.1186 63.6743 17.1186 63.3167 17.252C62.8356 17.4554 62.4873 17.7739 62.1009 18.1147C62.0006 18.1981 61.9003 18.2816 61.7969 18.3676C61.6937 18.4543 61.5904 18.5411 61.484 18.6305C61.3872 18.7116 61.2904 18.7927 61.1907 18.8762C60.921 19.1117 60.921 19.1117 60.8136 19.5377C60.5752 19.6325 60.3368 19.7274 60.0984 19.8223C60.0512 19.9631 60.004 20.104 59.9553 20.2492C59.855 20.3049 59.7547 20.3607 59.6514 20.4181C58.9038 20.887 58.3182 21.5831 57.9528 22.3836C57.8584 22.3836 57.764 22.3836 57.6667 22.3836C57.65 22.4658 57.6332 22.548 57.6159 22.6327C57.5175 22.9742 57.3831 23.2221 57.1929 23.522C57.1052 23.6629 57.1052 23.6629 57.0158 23.8066C56.8085 24.0912 56.8085 24.0912 56.5263 24.3636C56.2031 24.6944 56.0078 25.019 55.7894 25.4253C55.7182 25.5555 55.647 25.6857 55.5737 25.8199C54.3774 28.3022 54.3277 31.3345 54.3474 34.0365C54.3501 34.4154 54.3504 34.7943 54.3503 35.1733C54.351 35.4147 54.3519 35.6561 54.3528 35.8976C54.353 36.0106 54.3532 36.1237 54.3533 36.2402C54.3097 36.7539 54.3097 36.7539 54.5199 37.1827C54.5666 37.4665 54.6073 37.7514 54.6451 38.0365C54.7812 38.9547 55.0183 39.7644 55.358 40.6246C55.5556 41.1289 55.6642 41.4714 55.6642 42.0209C55.7586 42.0209 55.853 42.0209 55.9503 42.0209C56.2202 42.6311 56.4626 43.2343 56.6655 43.8708C56.7599 43.8708 56.8543 43.8708 56.9515 43.8708C56.9515 44.0116 56.9515 44.1525 56.9515 44.2976C57.046 44.2976 57.1404 44.2976 57.2376 44.2976C57.3101 44.4468 57.3101 44.4468 57.384 44.5989C57.4478 44.7284 57.5116 44.8579 57.5773 44.9914C57.6719 45.1845 57.6719 45.1845 57.7684 45.3816C57.9392 45.7342 57.9392 45.7342 58.2389 46.0052C58.2876 46.1549 58.2876 46.1549 58.3372 46.3076C58.6824 47.0599 59.2735 47.6551 59.9196 48.1664C60.2414 48.4243 60.2414 48.4243 60.4649 48.7978C60.6372 49.1499 60.6372 49.1499 60.9426 49.2681C61.37 49.485 61.5867 49.8098 61.8774 50.1808C62.1221 50.4389 62.3476 50.5616 62.673 50.7011C62.673 50.795 62.673 50.8889 62.673 50.9857C62.7483 50.9969 62.8235 51.0081 62.901 51.0196C63.38 51.1704 63.7626 51.4463 64.1749 51.7239C64.9631 52.2428 65.7621 52.6889 66.6172 53.0929C66.9642 53.2625 66.9642 53.2625 67.3933 53.5471C67.3933 53.641 67.3933 53.7349 67.3933 53.8317C67.5473 53.8611 67.5473 53.8611 67.7045 53.8911C68.891 54.1344 69.9943 54.5132 71.1122 54.9701C72.733 55.6295 74.4218 55.5509 76.1454 55.557C76.3824 55.5581 76.3824 55.5581 76.6242 55.5591C77.9264 55.5565 79.1321 55.5253 80.3611 55.0762C80.7283 54.9597 81.0835 54.902 81.4646 54.8455C82.2074 54.7232 82.8205 54.4645 83.4956 54.1396C83.8893 53.9517 84.2832 53.8158 84.7008 53.6894C84.9334 53.6127 85.1658 53.5356 85.3981 53.4581C85.5948 53.3929 85.7915 53.3277 85.9881 53.2625C85.9881 53.1686 85.9881 53.0746 85.9881 52.9779C86.2172 52.8821 86.4467 52.7874 86.6765 52.6933C86.8043 52.6404 86.932 52.5876 87.0637 52.5332C87.4185 52.4087 87.4185 52.4087 87.8476 52.4087C87.8476 52.3148 87.8476 52.2208 87.8476 52.1241C88.0566 51.9095 88.0566 51.9095 88.3304 51.6794C88.42 51.6027 88.5096 51.526 88.6019 51.447C88.8489 51.2703 88.8489 51.2703 89.1349 51.2703C89.1349 51.1764 89.1349 51.0825 89.1349 50.9857C89.4169 50.79 89.7038 50.6012 89.9932 50.4165C90.3895 50.1184 90.7362 49.8189 91.0838 49.4649C91.4235 49.1358 91.4235 49.1358 91.8527 48.9935C91.997 48.7422 91.997 48.7422 92.1387 48.4243C92.4248 47.9618 92.4248 47.9618 92.7109 47.5705C92.8053 47.5705 92.8997 47.5705 92.997 47.5705C92.997 47.4296 92.997 47.2888 92.997 47.1436C93.0914 47.1436 93.1858 47.1436 93.283 47.1436C93.283 47.0497 93.283 46.9558 93.283 46.859C93.3774 46.859 93.4718 46.859 93.5691 46.859C93.6075 46.7504 93.6458 46.6418 93.6853 46.53C93.8472 46.1655 93.9857 45.9772 94.2843 45.7206C94.8759 45.947 95.3188 46.3759 95.7147 46.859C95.7147 46.9529 95.7147 47.0469 95.7147 47.1436C95.8563 47.1906 95.9979 47.2375 96.1438 47.2859C96.3635 47.5076 96.3635 47.5076 96.598 47.7906C97.1402 48.4262 97.7203 49.0128 98.3162 49.5983C98.416 49.697 98.5158 49.7956 98.6187 49.8973C98.7641 50.041 98.7641 50.041 98.9123 50.1875C99.0033 50.2775 99.0943 50.3674 99.188 50.4601C99.3863 50.6546 99.5875 50.8462 99.7896 51.0368C100.006 51.2703 100.006 51.2703 100.006 51.5549C100.1 51.5549 100.195 51.5549 100.292 51.5549C100.721 52.0475 100.721 52.0475 100.721 52.4087C100.804 52.4204 100.888 52.4322 100.974 52.4443C101.388 52.5827 101.545 52.787 101.821 53.1202C101.95 53.2743 101.95 53.2743 102.082 53.4314C102.152 53.5166 102.222 53.6017 102.294 53.6894C102.342 53.7363 102.389 53.7833 102.437 53.8317C102.443 54.0688 102.444 54.3061 102.437 54.5432C102.343 54.5901 102.249 54.6371 102.151 54.6855C102.081 54.8058 102.01 54.9261 101.937 55.0501C101.831 55.2218 101.831 55.2218 101.722 55.3969C101.628 55.3969 101.533 55.3969 101.436 55.3969C101.387 55.5158 101.387 55.5158 101.338 55.6371C101.097 56.0599 100.788 56.3426 100.435 56.6776C100.317 56.795 100.199 56.9124 100.077 57.0334C99.0045 58.1006 99.0045 58.1006 98.6112 58.4742C98.2622 58.793 98.2622 58.793 98.1463 59.239C97.7982 59.5197 97.7982 59.5197 97.3685 59.8171C96.8012 60.2082 96.8012 60.2082 96.2868 60.662C96.1452 60.662 96.0036 60.662 95.8577 60.662C95.8577 60.7559 95.8577 60.8498 95.8577 60.9466C95.5437 61.1968 95.2302 61.4291 94.9011 61.6581C94.8116 61.7223 94.7221 61.7865 94.6299 61.8526C94.1469 62.1928 93.7 62.4525 93.14 62.6542C92.9486 62.7956 92.7578 62.9377 92.5678 63.0811C92.4734 63.0811 92.379 63.0811 92.2818 63.0811C92.2818 63.175 92.2818 63.2689 92.2818 63.3657C92.0794 63.4582 91.8767 63.5499 91.6739 63.6414C91.561 63.6926 91.4482 63.7437 91.3319 63.7965C91.029 63.9207 90.7417 64.0079 90.4223 64.0772C90.4223 64.1711 90.4223 64.265 90.4223 64.3618C90.0447 64.4087 89.667 64.4557 89.278 64.5041C89.278 64.598 89.278 64.6919 89.278 64.7887C88.5628 65.1444 88.5628 65.1444 87.8476 65.5002C87.7458 65.5545 87.6441 65.6088 87.5392 65.6647C87.2015 65.8184 86.927 65.805 86.5603 65.7848C86.5603 65.8787 86.5603 65.9726 86.5603 66.0694C86.3341 66.1415 86.1076 66.2124 85.8808 66.2828C85.6917 66.3422 85.6917 66.3422 85.4987 66.4029C85.1299 66.4963 85.1299 66.4963 84.5578 66.4963C84.5578 66.5902 84.5578 66.6841 84.5578 66.7809C84.0538 66.9992 83.5897 67.1255 83.0469 67.2077C82.8965 67.2312 82.746 67.2547 82.591 67.2789C82.4376 67.3024 82.2842 67.3259 82.1261 67.3501C81.837 67.397 81.5479 67.4444 81.259 67.4923C81.1168 67.5156 80.9746 67.5389 80.8282 67.5629C80.559 67.6091 80.2904 67.6581 80.0225 67.7108C76.1125 68.4796 71.0998 68.5469 67.2502 67.4923C67.0544 67.4436 66.8585 67.3955 66.6624 67.3478C66.0946 67.2096 65.5281 67.0667 64.9616 66.9232C64.7571 66.8729 64.5526 66.8227 64.3481 66.7725C63.8173 66.6386 63.8173 66.6386 63.3882 66.4963C63.3882 66.4023 63.3882 66.3084 63.3882 66.2117C63.3086 66.194 63.2289 66.1764 63.1469 66.1583C62.8161 66.0694 62.8161 66.0694 62.4853 65.9271C62.0882 65.7645 62.0882 65.7645 61.5913 65.7136C61.1605 65.6513 60.895 65.5772 60.5275 65.3579C60.5275 65.2639 60.5275 65.17 60.5275 65.0733C60.4228 65.0569 60.318 65.0406 60.2101 65.0238C59.8044 64.9291 59.5253 64.7947 59.1686 64.5841C58.8388 64.3906 58.5272 64.2204 58.1707 64.08C57.7901 63.927 57.4616 63.74 57.1125 63.5258C56.7049 63.2776 56.2979 63.0336 55.8788 62.8054C55.3095 62.4864 54.7843 62.1053 54.2534 61.7276C53.9595 61.5131 53.9595 61.5131 53.6617 61.3735C53.5909 61.1622 53.5909 61.1622 53.5187 60.9466C53.2115 60.7028 53.2115 60.7028 52.8303 60.4575C52.1586 59.9866 51.5695 59.479 50.9887 58.9011C50.913 58.8265 50.8374 58.752 50.7594 58.6751C50.2288 58.1376 50.2288 58.1376 50.2288 57.816C50.1266 57.7887 50.0245 57.7614 49.9193 57.7332C49.3654 57.4577 49.1046 57.0701 48.7448 56.5798C48.3039 55.9976 47.8716 55.4406 47.3412 54.9345C47.2085 54.8053 47.0757 54.6762 46.9389 54.5432C46.9389 54.4492 46.9389 54.3553 46.9389 54.2586C46.8445 54.2586 46.7501 54.2586 46.6529 54.2586C46.431 53.925 46.431 53.925 46.179 53.4759C45.8797 52.9491 45.579 52.4281 45.2493 51.9195C44.9988 51.5269 44.8031 51.1431 44.6503 50.7011C44.5559 50.7011 44.4615 50.7011 44.3643 50.7011C44.3176 50.5964 44.271 50.4916 44.2229 50.3837C44.1604 50.2448 44.0979 50.106 44.0335 49.9629C43.9721 49.8259 43.9107 49.6889 43.8474 49.5477C43.6563 49.1343 43.6563 49.1343 43.4194 48.755C43.1895 48.3738 43.075 47.9916 42.9339 47.5705C42.8631 47.4561 42.7923 47.3416 42.7193 47.2237C42.4618 46.786 42.3547 46.35 42.2187 45.8629C42.0771 45.6516 42.0771 45.6516 41.9326 45.436C41.8755 45.1591 41.8289 44.88 41.7896 44.6C41.7086 44.0262 41.5842 43.5507 41.3605 43.017C41.2818 42.6996 41.2184 42.3815 41.1549 42.0609C41.0813 41.7294 41.0813 41.7294 40.9359 41.403C39.3585 37.3599 39.4039 29.7814 41.1649 25.786C41.2617 25.581 41.2617 25.581 41.3605 25.3719C41.4113 25.0403 41.4594 24.7083 41.5035 24.3758C41.5965 24.1849 41.6918 23.9951 41.7896 23.8066C41.8444 23.5233 41.8934 23.2387 41.9326 22.9528C42.027 22.9528 42.1214 22.9528 42.2187 22.9528C42.2294 22.8666 42.2401 22.7804 42.2511 22.6916C42.3883 21.8221 42.658 21.2197 43.1356 20.4843C43.5323 19.8259 43.7982 19.1127 44.0782 18.3993C44.1734 18.1621 44.2688 17.9249 44.3643 17.6878C44.4587 17.6878 44.5531 17.6878 44.6503 17.6878C44.6503 17.5939 44.6503 17.4999 44.6503 17.4032C44.7447 17.4032 44.8391 17.4032 44.9364 17.4032C44.9484 17.3067 44.9604 17.2102 44.9727 17.1108C45.1081 16.579 45.3634 16.1449 45.6427 15.6778C45.6942 15.5896 45.7457 15.5013 45.7988 15.4104C46.0259 15.0235 46.2599 14.6455 46.5098 14.2726C46.6042 14.2726 46.6986 14.2726 46.7959 14.2726C46.8342 14.1669 46.8726 14.0613 46.9121 13.9524C47.0752 13.5767 47.2384 13.2971 47.5111 12.9919C47.6055 12.9919 47.6999 12.9919 47.7972 12.9919C47.7972 12.898 47.7972 12.8041 47.7972 12.7073C47.9841 12.5139 48.1761 12.3254 48.3693 12.1381C48.5284 11.9583 48.6862 11.7773 48.8431 11.5956C49.8599 10.4336 49.8599 10.4336 50.3718 10.0036C50.4662 10.0036 50.5606 10.0036 50.6579 10.0036C50.6874 9.92439 50.7169 9.84515 50.7473 9.76351C50.9395 9.44199 51.0944 9.29216 51.382 9.06091C51.8034 8.76974 51.8034 8.76974 51.9452 8.43835C52.0868 8.39139 52.2285 8.34443 52.3744 8.29605C52.6136 8.05972 52.8518 7.82239 53.0895 7.58456C53.4319 7.30485 53.7869 7.04414 54.1444 6.78413C54.2352 6.71626 54.3259 6.64839 54.4193 6.57846C54.8577 6.25804 55.2715 5.98794 55.7771 5.7847C56.2064 5.60493 56.3548 5.48225 56.6655 5.16548C57.0314 5.01429 57.0314 5.01429 57.4432 4.88088C57.9822 4.70581 58.3684 4.52032 58.811 4.16939C59.0971 4.02709 59.3832 3.88479 59.6693 3.74249C59.7637 3.64857 59.8581 3.55466 59.9553 3.45789C60.1667 3.36166 60.3819 3.27377 60.599 3.19108C60.7275 3.14156 60.856 3.09203 60.9884 3.041C61.1195 2.99074 61.2506 2.94048 61.3857 2.8887C61.6212 2.7941 61.8566 2.69923 62.092 2.6041C62.3332 2.50892 62.5746 2.41406 62.8161 2.3195C62.938 2.27089 63.0598 2.22228 63.1854 2.1722C64.0988 1.82229 65.0056 1.60451 65.9674 1.42458C66.4151 1.34366 66.4151 1.34366 66.8211 1.03881C67.1101 0.969122 67.4021 0.911245 67.695 0.860384C67.8699 0.829877 68.0448 0.79937 68.225 0.767939C68.4107 0.736996 68.5965 0.706053 68.7879 0.674173C68.9293 0.650314 68.9293 0.650314 69.0736 0.625974C70.5785 0.373153 72.0434 0.212517 73.5696 0.173348Z" fill="#2A5F80"/>
<path d="M0.642944 1.94043C19.0548 1.94043 37.4668 1.94043 56.4366 1.94043C55.6052 2.75239 55.6052 2.75239 55.1038 3.05482C55.007 3.11458 54.9103 3.17434 54.8106 3.23591C54.5379 3.36685 54.5379 3.36685 54.0997 3.36685C54.0997 3.46099 54.0997 3.55513 54.0997 3.65213C53.9069 3.6992 53.7141 3.74627 53.5155 3.79477C53.5155 3.88892 53.5155 3.98306 53.5155 4.08006C53.262 4.28621 52.9985 4.4807 52.7304 4.66845C52.5847 4.77179 52.439 4.87513 52.2888 4.9816C51.9088 5.22119 51.9088 5.22119 51.6167 5.22119C51.5836 5.30945 51.5504 5.39771 51.5163 5.48864C51.2692 5.87935 51.0336 5.94157 50.5943 6.07704C50.5943 6.21826 50.5943 6.35947 50.5943 6.50497C50.382 6.57116 50.382 6.57116 50.1653 6.63869C49.0378 7.1103 48.2289 8.21907 47.4695 9.12545C47.216 9.37664 46.9723 9.48944 46.6508 9.64308C46.6297 9.73134 46.6086 9.8196 46.5869 9.91054C46.5047 10.2137 46.5047 10.2137 46.1852 10.4544C45.7322 10.8182 45.4865 11.1731 45.1737 11.6518C44.7416 12.3044 44.2845 12.94 43.8311 13.5787C43.7636 13.6743 43.696 13.7698 43.6264 13.8683C43.5654 13.9542 43.5045 14.0402 43.4416 14.1287C43.2817 14.355 43.2817 14.355 43.1454 14.6355C42.9919 14.6377 42.9919 14.6377 42.8353 14.64C41.8683 14.654 40.9014 14.6686 39.9344 14.6839C39.4374 14.6918 38.9403 14.6994 38.4432 14.7065C37.8711 14.7146 37.299 14.7238 36.7269 14.7331C36.4606 14.7366 36.4606 14.7366 36.1888 14.7403C36.0222 14.7431 35.8556 14.746 35.6839 14.7489C35.465 14.7522 35.465 14.7522 35.2416 14.7556C34.8003 14.7793 34.3782 14.8423 33.9439 14.9208C33.9211 16.6177 33.9002 18.3145 33.88 20.0114C33.8783 20.1476 33.8767 20.2838 33.875 20.4242C33.8226 24.8291 33.7882 29.2341 33.763 33.6393C33.7607 34.0352 33.7584 34.4311 33.7561 34.827C33.7415 37.3524 33.7273 39.8778 33.7149 42.4033C33.7099 43.4247 33.7045 44.4462 33.6987 45.4676C33.6954 46.0647 33.6923 46.6617 33.6898 47.2588C33.6798 49.6092 33.6525 51.9541 33.5381 54.3025C33.497 55.1503 33.4845 55.997 33.4863 56.8458C33.4861 56.9977 33.4859 57.1497 33.4857 57.3062C33.4854 57.7837 33.4863 58.2611 33.4874 58.7386C33.4876 58.9027 33.4878 59.0668 33.488 59.2359C33.4084 63.4817 33.4084 63.4817 33.7978 67.6983C33.7014 67.6983 33.605 67.6983 33.5057 67.6983C33.4575 67.8866 33.4093 68.0748 33.3596 68.2688C31.6863 68.2721 30.013 68.2747 28.3397 68.2762C27.5628 68.277 26.786 68.278 26.0091 68.2796C25.26 68.2811 24.5109 68.282 23.7618 68.2824C23.4753 68.2826 23.1889 68.2832 22.9024 68.2839C22.5026 68.285 22.1029 68.2851 21.7031 68.285C21.5236 68.2858 21.5236 68.2858 21.3405 68.2866C20.5233 68.2851 20.5233 68.2851 20.3606 68.1262C20.3442 67.8808 20.338 67.6347 20.3358 67.3888C20.3331 67.1475 20.3331 67.1475 20.3303 66.9013C20.329 66.7223 20.3277 66.5433 20.3264 66.3588C20.3245 66.1684 20.3226 65.978 20.3206 65.7876C20.3153 65.2618 20.3109 64.7359 20.3066 64.21C20.3018 63.6435 20.2963 63.077 20.2908 62.5105C20.2801 61.3979 20.2703 60.2853 20.2607 59.1727C20.2494 57.8722 20.2374 56.5717 20.2253 55.2712C20.2037 52.9435 20.1829 50.6158 20.1624 48.288C20.1426 46.0419 20.1224 43.7957 20.1016 41.5496C20.1003 41.4122 20.0991 41.2747 20.0978 41.1331C20.0965 40.9959 20.0952 40.8586 20.0939 40.7173C20.0914 40.4408 20.0888 40.1643 20.0862 39.8879C20.0844 39.6832 20.0844 39.6832 20.0824 39.4744C20.0625 37.3215 20.0431 35.1686 20.0237 33.0157C20.0167 32.2421 20.0097 31.4686 20.0026 30.6951C19.9036 19.8923 19.9036 19.8923 19.9224 14.6355C19.8242 14.6393 19.7259 14.643 19.6247 14.6468C12.3189 14.9229 12.3189 14.9229 9.30682 15.0011C9.09084 15.0068 8.87487 15.0126 8.65891 15.0188C5.98725 15.0938 3.31596 15.0635 0.642944 15.0635C0.642944 10.7329 0.642944 6.40226 0.642944 1.94043Z" fill="#CC3C30"/>
<path d="M132.355 47.0558C133.052 47.162 133.052 47.162 133.382 47.4807C133.382 47.6209 133.382 47.7612 133.382 47.9057C133.467 47.9188 133.552 47.932 133.639 47.9456C134.047 48.0716 134.24 48.2532 134.546 48.5419C134.653 48.6418 134.76 48.7417 134.871 48.8446C135.037 49.0021 135.037 49.0021 135.206 49.1627C135.425 49.3695 135.645 49.5758 135.866 49.7813C135.962 49.8732 136.059 49.965 136.159 50.0596C136.485 50.3326 136.825 50.5264 137.195 50.7385C137.454 50.9513 137.454 50.9513 137.684 51.1729C137.768 51.2533 137.851 51.3337 137.938 51.4166C138.022 51.4996 138.107 51.5826 138.194 51.6681C138.282 51.7516 138.37 51.8351 138.46 51.9212C139.102 52.544 139.102 52.544 139.102 52.8632C139.182 52.8952 139.262 52.9271 139.344 52.96C139.797 53.2049 140.135 53.5212 140.514 53.8636C141.015 54.3385 141.015 54.3385 141.595 54.7046C141.547 55.0318 141.499 55.359 141.449 55.6961C141.231 55.7662 141.231 55.7662 141.009 55.8377C140.751 56.1094 140.751 56.1094 140.504 56.4397C140.415 56.5542 140.325 56.6687 140.233 56.7866C140.15 56.8942 140.067 57.0017 139.982 57.1125C139.793 57.3538 139.601 57.5928 139.395 57.8207C139.299 57.8207 139.202 57.8207 139.102 57.8207C139.066 57.9259 139.029 58.0311 138.992 58.1394C138.793 58.5616 138.587 58.798 138.222 59.0955C138.125 59.0955 138.028 59.0955 137.929 59.0955C137.88 59.2358 137.832 59.376 137.782 59.5205C137.52 59.708 137.52 59.708 137.186 59.9011C136.558 60.287 136.074 60.7269 135.561 61.2435C134.696 62.0701 134.696 62.0701 134.115 62.0701C134.088 62.149 134.061 62.2278 134.033 62.3091C133.522 63.1022 132.625 63.4154 131.769 63.7698C131.595 63.8871 131.424 64.0083 131.255 64.1328C130.76 64.493 130.318 64.6307 129.715 64.7613C129.715 64.8548 129.715 64.9483 129.715 65.0446C129.207 65.1147 129.207 65.1147 128.689 65.1863C128.689 65.2797 128.689 65.3732 128.689 65.4695C128.543 65.4695 128.398 65.4695 128.249 65.4695C128.249 65.563 128.249 65.6565 128.249 65.7528C127.045 66.3557 125.885 66.8098 124.582 67.1693C124.323 67.2676 124.323 67.2676 124.058 67.3679C123.349 67.6273 122.625 67.7934 121.887 67.9572C121.693 68.0014 121.693 68.0014 121.495 68.0465C120.735 68.2183 119.973 68.3759 119.206 68.5203C118.993 68.5609 118.779 68.603 118.567 68.6476C114.955 69.3968 110.769 69.2676 107.129 68.7274C106.983 68.7068 106.837 68.6863 106.687 68.6652C106.207 68.597 105.728 68.5258 105.25 68.4529C105.102 68.4306 104.953 68.4083 104.801 68.3853C103.998 68.2548 103.328 68.0622 102.582 67.7358C102.294 67.6584 102.004 67.5934 101.713 67.5279C101.067 67.368 100.446 67.1272 99.8219 66.9034C99.2271 66.6948 98.6671 66.539 98.0355 66.461C98.0355 66.3676 98.0355 66.2741 98.0355 66.1778C97.9419 66.152 97.8483 66.1263 97.7519 66.0997C97.6307 66.0641 97.5095 66.0285 97.3847 65.9919C97.2639 65.9573 97.1431 65.9228 97.0186 65.8873C96.9186 65.8429 96.8186 65.7985 96.7155 65.7528C96.6671 65.6126 96.6187 65.4724 96.5688 65.3279C97.0022 64.9634 97.4382 64.6829 97.9438 64.4249C98.5085 64.1317 98.9704 63.7959 99.442 63.3781C99.6488 63.2032 99.6488 63.2032 99.9422 63.0616C100.012 62.9418 100.081 62.822 100.153 62.6986C100.229 62.5847 100.304 62.4708 100.382 62.3534C100.527 62.3534 100.673 62.3534 100.822 62.3534C100.895 62.143 100.895 62.143 100.969 61.9284C101.141 61.8627 101.141 61.8627 101.317 61.7956C101.759 61.6228 101.867 61.4408 102.142 61.0786C102.287 61.0786 102.433 61.0786 102.582 61.0786C102.631 60.8449 102.679 60.6111 102.729 60.3703C102.823 60.3557 102.916 60.3411 103.013 60.3261C103.113 60.2939 103.213 60.2618 103.315 60.2287C103.388 60.0184 103.388 60.0184 103.462 59.8038C103.559 59.8038 103.656 59.8038 103.755 59.8038C103.765 59.7249 103.774 59.646 103.783 59.5647C103.954 59.0954 104.253 58.8541 104.635 58.529C104.781 58.4822 104.926 58.4355 105.075 58.3873C105.179 58.2012 105.275 58.0117 105.369 57.8207C105.662 57.4312 105.662 57.4312 105.955 57.1125C106.052 57.1125 106.149 57.1125 106.249 57.1125C106.346 56.8788 106.442 56.6451 106.542 56.4043C106.639 56.4043 106.736 56.4043 106.835 56.4043C106.904 56.2378 106.904 56.2378 106.973 56.0679C107.129 55.6961 107.129 55.6961 107.275 55.4128C107.442 55.4303 107.608 55.4479 107.78 55.4659C107.963 55.4848 107.963 55.4848 108.151 55.5041C108.469 55.5402 108.787 55.5817 109.104 55.6269C113.643 56.2547 118.758 56.0561 122.912 54.0816C123.42 53.8498 123.92 53.6831 124.455 53.5272C124.746 53.4235 124.97 53.2915 125.224 53.1199C125.609 52.8632 125.609 52.8632 126.049 52.8632C126.049 52.7697 126.049 52.6762 126.049 52.5799C126.412 52.5098 126.412 52.5098 126.782 52.4383C126.782 52.3448 126.782 52.2513 126.782 52.155C127.069 51.906 127.359 51.6763 127.662 51.4468C127.775 51.3588 127.888 51.2707 128.004 51.1801C128.944 50.4552 128.944 50.4552 129.275 50.4552C129.275 50.3618 129.275 50.2683 129.275 50.172C129.538 49.9523 129.538 49.9523 129.89 49.7028C130.527 49.2371 131.102 48.7719 131.576 48.1447C131.64 48.0658 131.703 47.9869 131.769 47.9057C131.865 47.9057 131.962 47.9057 132.062 47.9057C132.159 47.6252 132.256 47.3447 132.355 47.0558Z" fill="#2A5F80"/>
<path d="M146.49 25.825C160.657 25.825 160.657 25.825 164.077 28.8798C164.931 29.7232 164.931 29.7232 165.134 30.2929C165.268 30.4019 165.268 30.4019 165.405 30.513C165.839 30.9678 165.971 31.4732 166.145 32.0531C166.241 32.0531 166.336 32.0531 166.434 32.0531C166.504 32.3039 166.573 32.555 166.642 32.8062C166.681 32.946 166.719 33.0858 166.759 33.2298C166.987 34.1661 167.039 35.066 167.04 36.0218C167.041 36.1418 167.043 36.2618 167.045 36.3854C167.047 37.23 166.923 38.0011 166.724 38.8228C166.677 39.0454 166.632 39.2682 166.588 39.4913C166.496 39.9516 166.353 40.1241 166.001 40.4475C165.893 40.7602 165.795 41.0761 165.712 41.3952C165.616 41.3952 165.521 41.3952 165.423 41.3952C165.404 41.4734 165.386 41.5516 165.367 41.6322C165.167 42.3158 164.779 43.0379 164.267 43.5615C164.171 43.5615 164.076 43.5615 163.977 43.5615C163.939 43.6481 163.9 43.7347 163.86 43.8239C163.688 44.1031 163.688 44.1031 163.255 44.2385C163.156 44.4179 163.06 44.5986 162.966 44.7801C162.614 45.0943 162.218 45.3556 161.828 45.6263C161.671 45.7389 161.671 45.7389 161.512 45.8537C161.411 45.9246 161.31 45.9954 161.205 46.0684C161.113 46.1331 161.021 46.1977 160.927 46.2642C160.653 46.4048 160.653 46.4048 160.075 46.4048C160.075 46.4942 160.075 46.5835 160.075 46.6756C159.884 46.6756 159.694 46.6756 159.497 46.6756C159.497 46.7649 159.497 46.8543 159.497 46.9464C159.214 47.0319 158.931 47.1163 158.648 47.2002C158.412 47.2709 158.412 47.2709 158.17 47.343C154.247 48.3726 151.089 47.7587 146.49 47.7587C146.49 40.5206 146.49 33.2824 146.49 25.825Z" fill="#D9251C"/>
<path d="M82.5125 17.9788C82.8211 18.0973 83.1226 18.2259 83.4244 18.3597C83.5786 18.4244 83.5786 18.4244 83.736 18.4903C84.3452 18.7538 84.8309 19.0479 85.3406 19.472C85.5675 19.6296 85.7958 19.7851 86.0257 19.9385C89.8475 22.5173 89.8475 22.5173 90.8943 23.9203C91.0973 24.1829 91.305 24.3983 91.5522 24.6211C91.8576 24.9261 91.8576 24.9261 91.8576 25.3567C91.9554 25.3567 92.0532 25.3567 92.1539 25.3567C92.2028 25.4988 92.2516 25.6409 92.302 25.7873C92.3997 25.8346 92.4975 25.882 92.5982 25.9308C92.6086 28.063 92.6164 30.1953 92.6212 32.3275C92.6235 33.3177 92.6266 34.3078 92.6317 35.2979C92.6367 36.2536 92.6392 37.2094 92.6404 38.1651C92.6412 38.5295 92.6428 38.8939 92.6452 39.2583C92.6484 39.7692 92.6489 40.2801 92.6487 40.791C92.6503 40.9412 92.6519 41.0914 92.6535 41.2462C92.6497 42.1275 92.5282 42.7793 92.1539 43.5847C92.0561 43.5847 91.9584 43.5847 91.8576 43.5847C91.8439 43.7002 91.8439 43.7002 91.8299 43.818C91.6566 44.3087 91.3132 44.6281 90.969 45.02C90.9201 45.1621 90.8712 45.3042 90.8209 45.4506C90.7231 45.4506 90.6253 45.4506 90.5246 45.4506C90.4838 45.5341 90.4429 45.6175 90.4008 45.7035C89.6539 47.0953 88.4579 48.0086 87.1192 48.8375C86.7924 49.0426 86.7924 49.0426 86.4793 49.4066C85.9586 49.8643 85.4094 50.0566 84.7586 50.3014C84.3559 50.4543 83.9712 50.6244 83.5818 50.806C83.0639 51.0336 82.6575 51.1054 82.0821 51.0482C82.0821 51.1429 82.0821 51.2377 82.0821 51.3353C81.6911 51.3826 81.3001 51.43 80.8972 51.4788C80.4419 50.6428 80.0804 49.77 79.7123 48.8953C79.6602 48.7717 79.6081 48.6481 79.5544 48.5208C79.4285 48.2084 79.3176 47.896 79.2124 47.5766C79.0518 47.0993 78.868 46.6395 78.6663 46.1772C78.4091 45.5699 78.2626 44.9821 78.156 44.3349C78.0995 44.0163 78.0995 44.0163 77.94 43.7635C77.7491 43.3619 77.6963 42.9955 77.6335 42.5576C77.6084 42.3872 77.5833 42.2168 77.5574 42.0413C77.5323 41.8638 77.5072 41.6864 77.4814 41.5036C77.4305 41.1522 77.3794 40.8009 77.328 40.4496C77.3059 40.2939 77.2837 40.1382 77.2609 39.9778C77.2063 39.5874 77.2063 39.5874 77.1177 39.2999C77.0345 38.9409 77.0252 38.6127 77.0224 38.2448C77.021 38.0957 77.0196 37.9466 77.0181 37.793C77.0175 37.6323 77.0168 37.4715 77.0162 37.306C77.0149 37.0558 77.0149 37.0558 77.0136 36.8005C77.0122 36.4469 77.0113 36.0933 77.0107 35.7397C77.0093 35.2039 77.0047 34.6681 77 34.1324C76.999 33.7878 76.9982 33.4433 76.9977 33.0988C76.9958 32.9407 76.994 32.7826 76.9921 32.6197C76.995 31.6275 77.1312 30.7354 77.3866 29.7742C77.5131 29.2892 77.5758 28.8231 77.6295 28.3259C77.7311 27.5288 77.8814 26.7623 78.0831 25.9846C78.1077 25.8895 78.1323 25.7943 78.1577 25.6963C78.2957 25.1827 78.465 24.6978 78.6755 24.2085C78.7887 23.8834 78.8966 23.557 79.0041 23.2301C79.1199 22.9167 79.1199 22.9167 79.2726 22.6268C79.4644 22.2469 79.5392 21.8652 79.629 21.4534C79.7123 21.1944 79.7123 21.1944 80.0085 20.9073C80.3217 20.2167 80.6066 19.5097 80.6751 18.7544C80.7491 18.3238 80.7491 18.3238 80.9991 18.0457C81.5135 17.8167 81.9688 17.814 82.5125 17.9788Z" fill="#295F80"/>
</svg>
