<svg width="27" height="28" viewBox="0 0 27 28" fill="none" xmlns="http://www.w3.org/2000/svg">
<path d="M13.0315 0C7.10326 0 2.30883 4.79443 2.30883 10.7227C2.30883 13.5615 3.40816 16.1402 5.205 18.0571L8.00988 14.1712V14.1711C7.334 13.1899 6.93773 12.0016 6.93773 10.7227C6.93773 7.36271 9.67154 4.62891 13.0315 4.62891C13.826 4.62891 14.5856 4.78178 15.2823 5.05969C14.8705 5.41174 14.5398 5.84884 14.3131 6.34092C14.0864 6.833 13.969 7.36836 13.969 7.91016C13.969 8.90472 14.3641 9.85855 15.0673 10.5618C15.7706 11.2651 16.7244 11.6602 17.719 11.6602C18.1874 11.6601 18.6516 11.5724 19.0877 11.4014C18.9742 12.4212 18.6078 13.3658 18.053 14.1711V14.1712L20.858 18.0571C22.6548 16.1402 23.7541 13.5615 23.7541 10.7227C23.7541 4.79443 18.9597 0 13.0315 0ZM13.0315 11.3027L10.5652 12.4332L0 27.0703H2.17699L4.59398 23.8477L3.78832 27.0703H6.67992L10.219 18.2227L9.33422 27.0703H13.9313L13.0315 14.4727L15.731 27.0703H18.5246L15.844 16.3477L20.7648 27.0703H23.1248L21.0069 21.9727L24.8241 27.0703H26.063L15.4978 12.4332L13.0315 11.3027Z" fill="#295E7E"/>
</svg>
